<svg id="eXJCEtiU6DQ1" xmlns="http://www.w3.org/2000/svg" xmlns:xlink="http://www.w3.org/1999/xlink" viewBox="0 0 300 300" shape-rendering="geometricPrecision" text-rendering="geometricPrecision" project-id="0893007798b045aea41798a7721e845e" export-id="9d5db1590dba4b32b2d41f276964b35c" cached="false"><rect width="48" height="48" rx="6.22" ry="6.22" transform="matrix(.962932 0 0 0.880236 126.889632 128.874336)"/><path d="" fill="none" stroke="#3f5787" stroke-width="0.6"/><g transform="matrix(.6 0 0 0.6 111.6 111.405477)"><path d="M51.38,78.72C48.06,79.81,46,81.32,46,83c0,3.31,8.06,6,18,6s18-2.69,18-6c0-1.68-2.06-3.19-5.38-4.28" fill="none" fill-opacity="0.5" stroke="#f9f9fa" stroke-width="4" stroke-linecap="round"/><path d="M52,68.69c-4.87416-4.85733-6.3394-12.17394-3.71157-18.53362s8.83036-10.50797,15.71157-10.50797s13.08375,4.14829,15.71157,10.50797s1.16259,13.6763-3.71157,18.53362l-12,12c-5.267595-4.987175-12-12-12-12ZM64,63c3.31371,0,6-2.68629,6-6s-2.68629-6-6-6-6,2.68629-6,6s2.68629,6,6,6Z" fill="#f4f4f4" fill-opacity="0" stroke="#fff" stroke-width="4" stroke-linejoin="round" stroke-miterlimit="10"/></g></svg>
