<svg id="et5nABzIyWZ1" xmlns="http://www.w3.org/2000/svg" xmlns:xlink="http://www.w3.org/1999/xlink" viewBox="0 0 300 300" shape-rendering="geometricPrecision" text-rendering="geometricPrecision" project-id="0893007798b045aea41798a7721e845e" export-id="da02067c359c40469b18bd5ae42685a6" cached="false"><rect width="104.077962" height="113.889911" rx="6.22" ry="6.22" transform="matrix(1.562173 0 0 1.351367 68.706108 86.984649)"/><path d="" fill="none" stroke="#3f5787" stroke-width="0.6"/><g transform="matrix(1.4 0 0 1.4 89.287178 88.945449)"><path d="M51.38,78.72C48.06,79.81,46,81.32,46,83c0,3.31,7.543738,6,18,6s18.431084-2.69,18-6c-.216966-1.665931-2.06-3.19-5.38-4.28" transform="matrix(1.5 0 0 1.5-51.593533-43.921374)" fill="none" fill-opacity="0.5" stroke="#fff" stroke-width="4" stroke-linecap="round"/><path d="M52,68.69c-4.87416-4.85733-6.3394-12.17394-3.71157-18.53362s8.83036-10.50797,15.71157-10.50797s13.08375,4.14829,15.71157,10.50797s1.16259,13.6763-3.71157,18.53362l-12,12c-5.267595-4.987175-12-12-12-12ZM64,63c3.31371,0,6-2.68629,6-6s-2.68629-6-6-6-6,2.68629-6,6s2.68629,6,6,6Z" transform="matrix(1.5 0 0 1.5-51.981942-41.947964)" fill="#fff" fill-opacity="0" stroke="#fff" stroke-width="4" stroke-linejoin="round" stroke-miterlimit="10"/></g></svg>
